<?xml version="1.0" encoding="utf-8" ?><svg xmlns="http://www.w3.org/2000/svg" xmlns:xlink="http://www.w3.org/1999/xlink" width="500" height="500" viewBox="0 0 500 500"><path fill="#5503F8" d="M94.9767 208.582C85.8295 206.114 88.9154 188.088 92.0018 187.284C103.194 184.371 121.685 182.9 133.098 185.765C144.889 187.498 158.659 192.615 166.132 202.403C174.087 212.823 171.894 229.414 162.868 238.427C155.856 245.71 147.733 248.689 138.231 251.125C136.616 251.539 133.348 251.682 132.104 252.241C132.15 252.373 138.05 257.554 138.65 257.968C142.643 260.72 146.993 263.391 151.304 265.645C153.618 267.317 165.617 270.565 166.689 272.626C167.78 274.721 167.187 283.602 165.572 285.972C158.046 297.015 149.181 296.267 139.885 288.733C131.478 283.255 121.011 270.842 116.921 261.699C116.025 267.403 114.894 290.878 110.825 293.576C109.425 294.504 106.841 293.779 105.361 293.31C101.959 292.232 98.7646 290.552 95.7257 288.703C92.9559 287.265 85.7316 281.153 86.0146 277.55C86.9225 265.991 90.1855 254.502 92.2904 243.095C93.0777 238.828 93.9409 234.519 94.7765 230.256C96.0176 223.924 98.2171 216.929 98.8705 210.511C97.7228 210.208 96.0587 209.201 94.9767 208.582ZM141.305 210.111C135.359 206.679 131.571 208.224 124.843 207.901C124.189 214.152 123.036 220.223 121.883 226.395C121.416 228.894 121 233.041 120.43 235.324C131.05 234.836 154.017 221.77 141.305 210.111Z"/><path d="M98.8705 210.511C99.7702 209.748 101.011 208.741 101.957 209.876C102.26 212.254 99.9827 222.053 99.4079 224.847L93.321 255.476C92.0336 261.998 88.9036 274.065 89.6284 281.015C89.8004 282.665 94.3911 286.989 95.7257 288.703C92.9559 287.265 85.7316 281.153 86.0146 277.55C86.9225 265.991 90.1855 254.502 92.2904 243.095C93.0777 238.828 93.9409 234.519 94.7765 230.256C96.0176 223.924 98.2171 216.929 98.8705 210.511Z"/><path d="M94.9767 208.582C85.8295 206.114 88.9154 188.088 92.0018 187.284C103.194 184.371 121.685 182.9 133.098 185.765C129.998 186.063 124.642 185.805 121.388 185.749C115.654 185.65 99.7736 186.629 94.7286 188.747C92.1784 193.135 91.3079 197.481 92.5344 202.528C93.1232 204.951 94.1814 206.473 94.9767 208.582Z"/><path d="M116.999 258.28C121.083 265.003 122.36 268.741 127.575 275.231C131.025 279.525 137.207 284.914 139.885 288.733C131.478 283.255 121.011 270.842 116.921 261.699C116.941 260.581 116.94 259.39 116.999 258.28Z"/><path d="M141.305 210.111C145.891 211.04 148.494 216.339 147.486 220.685C146.398 225.082 142.746 229.448 138.779 231.672C133.895 234.409 126.63 237.041 120.947 236.878C120.39 236.862 120.436 235.707 120.43 235.324C131.05 234.836 154.017 221.77 141.305 210.111Z"/><path fill="#5503F8" d="M355.208 224.005C352.85 214.656 361.016 204.918 370.54 205.968C372.453 206.179 374.766 206.445 376.512 207.259C388.272 210.658 401.054 217.705 406.899 228.892C414.431 243.311 406.644 265.398 396.999 277.197C384.349 292.673 366.951 299.844 349.273 287.636C344.926 285.044 335.57 275.204 334.645 270.382C331.985 256.528 336.513 238.288 343.02 226.215C348.747 223.873 349.148 223.993 355.208 224.005ZM360.448 273.697C373.013 268.745 381.215 255.772 384.642 243.291C385.249 241.08 386.96 236.86 385.884 234.775C378.883 231.586 373.685 232.472 366.749 231.725C369.667 240.08 366.878 240.275 363.985 247.295C361.631 253.006 358.637 267.64 360.448 273.697Z"/><path d="M355.208 224.005C352.85 214.656 361.016 204.918 370.54 205.968C372.453 206.179 374.766 206.445 376.512 207.259C370.329 207.604 366.327 207.472 361.668 212.533C357.917 216.608 358.094 220.566 358.285 225.64C354.816 225.684 348.631 225.464 346.35 228.493C341.449 235 338.943 247.424 337.621 255.567C337.047 259.104 337.084 263.137 337.087 266.404C337.098 275.727 344.167 281.047 349.273 287.636C344.926 285.044 335.57 275.204 334.645 270.382C331.985 256.528 336.513 238.288 343.02 226.215C348.747 223.873 349.148 223.993 355.208 224.005Z"/><path d="M385.884 234.775C392.452 235.092 387.947 244.968 386.844 248.282C383.815 257.377 379.049 264.732 371.448 270.707C369.816 271.989 362.083 277.026 360.38 275.114C360.359 274.372 360.327 274.412 360.448 273.697C373.013 268.745 381.215 255.772 384.642 243.291C385.249 241.08 386.96 236.86 385.884 234.775Z"/><path fill="#5503F8" d="M187.631 285.241C186.118 284.227 184.814 282.707 183.496 281.616C168.066 268.838 171.904 253.621 178.426 236.79C182.657 225.873 190.33 214.924 200.851 208.715C206.817 205.194 217.824 205.173 224.29 207.266C232.908 209.991 240.25 213.972 244.56 222.193C251.932 236.251 240.203 247.202 228.349 252.935C221.026 256.477 209.149 260.912 200.978 260.998C200.992 263.801 201.149 269.528 200.802 272.175C201.933 271.508 208.101 269.968 210.111 269.199C217.241 266.473 222.804 263.111 228.904 258.633C229.83 258.737 231.898 259.253 232.899 259.478C237.445 261.147 241.401 263.567 243.494 268.154C250.097 282.626 232.928 289.69 222.004 292.382C208.678 295.666 198.445 293.606 187.631 285.241ZM223.653 228.804C222.412 227.536 221.139 227.067 219.543 226.294C213.88 229.295 206.349 240.171 204.454 246.402C204.396 246.597 204.34 246.792 204.289 246.988C204.436 247.428 204.426 247.349 204.688 247.746C206.356 247.638 206.67 245.903 207.799 245.09C211.971 242.083 223.375 234.66 223.653 228.804Z"/><path d="M187.631 285.241C186.118 284.227 184.814 282.707 183.496 281.616C168.066 268.838 171.904 253.621 178.426 236.79C182.657 225.873 190.33 214.924 200.851 208.715C206.817 205.194 217.824 205.173 224.29 207.266C211.22 207.643 205.045 206.81 194.753 217.611C183.672 229.239 175.933 247.621 176.321 263.786C176.556 273.585 182.09 277.721 187.631 285.241Z"/><path d="M228.904 258.633C229.83 258.737 231.898 259.253 232.899 259.478C224.267 265.29 216.194 270.762 205.754 272.893C204.447 273.16 202.138 273.946 201.052 273.221C200.854 272.646 200.862 272.77 200.802 272.175C201.933 271.508 208.101 269.968 210.111 269.199C217.241 266.473 222.804 263.111 228.904 258.633Z"/><path d="M223.653 228.804C224.401 229.717 225.322 231.384 225.024 232.522C222.769 241.149 209.683 247.054 202.835 249.576L204.289 246.988C204.436 247.428 204.426 247.349 204.688 247.746C206.356 247.638 206.67 245.903 207.799 245.09C211.971 242.083 223.375 234.66 223.653 228.804Z"/><path fill="#5503F8" d="M282.623 271.278C283.86 270.044 286.62 264.863 287.7 262.939C294.606 250.555 299.891 237.336 303.426 223.605C304.76 218.562 305.93 213.577 306.966 208.473C307.386 206.403 313.06 205.86 314.887 205.706C318.09 205.436 321.512 205.788 324.638 206.707C329.163 208.934 332.693 210.199 334.549 215.437C336.261 219.924 334.851 224.531 333.169 228.849C324.663 250.681 312.441 273.403 294.757 289.124C287.845 295.268 281.591 294.838 273.935 290.769C272.005 289.739 270.114 288.637 268.266 287.466C265.454 286.062 260.374 281.449 258.376 278.766C257.851 273.638 258.85 270.769 259.755 265.948C261.074 258.928 263.865 246.704 262.68 239.974L260.807 237.804L259.752 236.963C258.184 236.096 252.641 231.895 251.876 230.638C247.831 223.99 257.008 215.123 261.867 211.829C265.417 209.423 269.255 209.866 272.819 210.648C278.646 213.125 287.163 217.725 289.572 224.01C292.189 230.833 287.398 253.552 285.453 261.257C284.624 264.538 283.13 267.988 282.623 271.278Z"/><path d="M282.623 271.278C283.86 270.044 286.62 264.863 287.7 262.939C294.606 250.555 299.891 237.336 303.426 223.605C304.76 218.562 305.93 213.577 306.966 208.473C307.386 206.403 313.06 205.86 314.887 205.706C318.09 205.436 321.512 205.788 324.638 206.707C304.715 208.154 311.039 209.893 306.263 226.98C302.315 241.453 296.386 255.311 288.645 268.162C287.516 270.022 285.341 273.746 283.646 274.881C281.521 275.17 282.244 272.421 282.623 271.278Z"/><path d="M260.807 237.804C263.21 239.195 265.108 240.763 265.832 243.551C268.194 252.645 259.203 273.415 261.987 280.245C263.272 283.396 266.363 284.855 268.266 287.466C265.454 286.062 260.374 281.449 258.376 278.766C257.851 273.638 258.85 270.769 259.755 265.948C261.074 258.928 263.865 246.704 262.68 239.974L260.807 237.804Z"/><path d="M259.752 236.963C258.184 236.096 252.641 231.895 251.876 230.638C247.831 223.99 257.008 215.123 261.867 211.829C265.417 209.423 269.255 209.866 272.819 210.648C271.253 211.057 268.479 211.737 267.059 212.361C262.455 214.384 257.947 219.062 255.402 223.338C254.314 225.167 253.186 227.719 253.726 229.852C254.51 232.947 257.964 234.874 259.752 236.963Z"/><path fill="#5503F8" d="M366.015 299.955C369.746 300.266 378.548 299.474 381.477 300.816C386.87 302.566 390.036 308.131 385.53 312.682C390.33 319.405 386.73 324.314 379.059 324.798C375.818 325.003 372.081 325.082 368.874 324.697C367.879 323.986 367.073 323.804 365.916 323.42C366.216 315.953 366.033 307.505 366.015 299.955ZM373.747 318.906L373.998 319.001C376.85 320.113 380.277 318.824 380.158 315.438C378.068 315.464 375.693 315.415 373.644 315.505C373.698 316.464 373.833 317.998 373.747 318.906ZM373.911 309.736L377.7 309.829C379.457 308.794 380.158 308.262 380.149 306.155C377.994 305.989 375.831 305.957 373.672 306.059L373.911 309.736Z"/><path d="M366.015 299.955C369.746 300.266 378.548 299.474 381.477 300.816C378.674 301.851 372.202 301.757 368.78 302.03C368.937 309.585 368.968 317.141 368.874 324.697C367.879 323.986 367.073 323.804 365.916 323.42C366.216 315.953 366.033 307.505 366.015 299.955Z"/><path d="M380.149 306.155C381.096 305.968 381.104 306.03 382.001 306.292C383.06 307.094 383.117 308.808 382.185 309.793C380.62 311.446 376.261 311.663 374.318 310.709C374.06 310.209 374.07 310.274 373.911 309.736L377.7 309.829C379.457 308.794 380.158 308.262 380.149 306.155Z"/><path d="M380.158 315.438C381.771 315.589 382.659 316.305 382.827 318.043C382.105 320.638 375.929 320.928 374.178 319.942C373.93 319.442 373.919 319.442 373.747 318.906L373.998 319.001C376.85 320.113 380.277 318.824 380.158 315.438Z"/><path fill="#5503F8" d="M388.228 300.167C391.562 299.987 396.891 299.95 400.049 300.65C401.859 301.499 403.88 302.145 405.454 303.369C412.722 309.016 411.133 321.445 401.891 324.083C399.508 324.763 393.61 325.246 391.495 324.4C390.724 323.571 389.557 323.785 388.83 323.03C388.173 322.348 388.327 303.014 388.228 300.167ZM395.91 319.175C396.272 318.813 396.405 318.699 396.894 318.471C402.313 315.944 403.981 311.672 400.545 306.725C398.704 305.935 397.745 305.957 395.791 305.982C395.802 309.231 396.125 316.246 395.91 319.175Z"/><path d="M388.228 300.167C391.562 299.987 396.891 299.95 400.049 300.65C397.448 301.734 394.231 301.954 391.4 302.07C391.306 308.433 391.12 318.203 391.495 324.4C390.724 323.571 389.557 323.785 388.83 323.03C388.173 322.348 388.327 303.014 388.228 300.167Z"/><path d="M400.545 306.725C402.264 306.793 402.774 307.416 404.011 308.572C405.043 309.535 405.314 311.558 405.249 312.836C405.06 316.542 401.419 320.626 397.469 319.866C396.701 319.718 396.459 319.769 395.91 319.175C396.272 318.813 396.405 318.699 396.894 318.471C402.313 315.944 403.981 311.672 400.545 306.725Z"/></svg>